<svg xmlns="http://www.w3.org/2000/svg" width="21" height="20" viewBox="0 0 21 20">
    <path fill="#BBB" fill-rule="nonzero" d="M3.174 5.482c.123 0 .229.044.319.134.09.09.134.196.134.319v2.72a.436.436 0 0 1-.134.32.436.436 0 0 1-.32.134H.454a.437.437 0 0 1-.318-.135A.435.435 0 0 1 0 8.655v-2.72c0-.123.045-.23.135-.319a.435.435 0 0 1 .318-.134h2.72zm0 10.881c.123 0 .229.045.319.135.09.09.134.196.134.319v2.72a.435.435 0 0 1-.134.319.435.435 0 0 1-.32.134H.454a.435.435 0 0 1-.318-.134.436.436 0 0 1-.135-.319v-2.72c0-.123.045-.23.135-.32a.435.435 0 0 1 .318-.134h2.72zm0-5.44c.123 0 .229.044.319.134.09.09.134.196.134.319v2.72c0 .123-.045.23-.134.319a.435.435 0 0 1-.32.134H.454a.436.436 0 0 1-.318-.134.436.436 0 0 1-.135-.319v-2.72c0-.123.045-.23.135-.32a.437.437 0 0 1 .318-.134h2.72zm0-10.882c.123 0 .229.045.319.134.09.09.134.196.134.319v2.72a.436.436 0 0 1-.134.32.435.435 0 0 1-.32.134H.454a.436.436 0 0 1-.318-.135A.436.436 0 0 1 0 3.214V.494C0 .37.045.264.135.175A.435.435 0 0 1 .453.041h2.72zM20.1 16.363c.092 0 .172.045.24.135.067.09.101.196.101.319v2.72a.515.515 0 0 1-.101.319c-.068.09-.147.135-.24.135H5.782c-.093 0-.172-.045-.24-.135a.515.515 0 0 1-.101-.319v-2.72c0-.123.034-.23.101-.32.068-.09.148-.134.24-.134H20.1zm0-5.44c.092 0 .172.044.24.134.067.09.101.196.101.319v2.72c0 .123-.034.23-.101.319-.068.09-.147.134-.24.134H5.782c-.093 0-.172-.044-.24-.134a.515.515 0 0 1-.101-.319v-2.72c0-.123.034-.23.101-.32.068-.089.148-.134.24-.134H20.1zM20.34.174c.067.09.101.196.101.319v2.72a.515.515 0 0 1-.101.32c-.068.09-.147.134-.24.134H5.782c-.093 0-.172-.045-.24-.135a.515.515 0 0 1-.101-.319V.494c0-.123.034-.23.101-.319.068-.09.148-.134.24-.134H20.1c.093 0 .172.045.24.134zm-.24 5.307c.092 0 .172.044.24.134.067.09.101.196.101.319v2.72a.515.515 0 0 1-.101.32c-.068.089-.147.134-.24.134H5.782c-.093 0-.172-.045-.24-.135a.516.516 0 0 1-.101-.319v-2.72c0-.123.034-.23.101-.319.068-.09.148-.134.24-.134H20.1z"/>
</svg>
